<svg width="38" height="78" viewBox="0 0 38 78" fill="none" xmlns="http://www.w3.org/2000/svg">
<path d="M30.771 52.8472H7.45464C4.67888 52.8472 2.45827 50.6266 2.45827 47.8508V6.76956C2.45827 3.9938 4.67888 1.77319 7.45464 1.77319H30.771C33.5468 1.77319 35.7674 3.9938 35.7674 6.76956V47.8508C35.7674 50.6266 33.5468 52.8472 30.771 52.8472Z" stroke="white" stroke-width="3" stroke-miterlimit="10"/>
<path d="M23.5532 52.8471H14.6707V67.6141H23.5532V52.8471Z" stroke="white" stroke-width="3" stroke-miterlimit="10"/>
<path d="M19.1127 26.2005C23.4051 26.2005 26.8848 22.7208 26.8848 18.4284C26.8848 14.136 23.4051 10.6563 19.1127 10.6563C14.8202 10.6563 11.3405 14.136 11.3405 18.4284C11.3405 22.7208 14.8202 26.2005 19.1127 26.2005Z" stroke="white" stroke-width="3" stroke-miterlimit="10"/>
<path d="M19.1124 43.5213C21.7494 43.5213 23.8871 41.3836 23.8871 38.7466C23.8871 36.1097 21.7494 33.972 19.1124 33.972C16.4754 33.972 14.3378 36.1097 14.3378 38.7466C14.3378 41.3836 16.4754 43.5213 19.1124 43.5213Z" stroke="white" stroke-width="3" stroke-miterlimit="10"/>
<path d="M2.3462 75.3862V72.0553C2.3462 69.6127 4.34475 67.6141 6.78741 67.6141H31.4361C33.8788 67.6141 35.8774 69.6127 35.8774 72.0553V75.3862C35.8774 76.0524 35.4332 76.4965 34.7671 76.4965H3.4565C2.79032 76.4965 2.3462 76.0524 2.3462 75.3862Z" stroke="white" stroke-width="3" stroke-miterlimit="10"/>
</svg>
