<svg width="21" height="22" viewBox="0 0 21 22" fill="none" xmlns="http://www.w3.org/2000/svg">
<circle cx="10.5" cy="10.6074" r="10.5" fill="#BF4444"/>
<path d="M11.7832 13.0557H9.38379L9.00586 4.31055H12.1611L11.7832 13.0557ZM8.91797 15.7803C8.91797 15.3467 9.07324 14.9922 9.38379 14.7168C9.7002 14.4355 10.0928 14.2949 10.5615 14.2949C11.0303 14.2949 11.4199 14.4355 11.7305 14.7168C12.0469 14.9922 12.2051 15.3467 12.2051 15.7803C12.2051 16.2139 12.0469 16.5713 11.7305 16.8525C11.4199 17.1279 11.0303 17.2656 10.5615 17.2656C10.0928 17.2656 9.7002 17.1279 9.38379 16.8525C9.07324 16.5713 8.91797 16.2139 8.91797 15.7803Z" fill="white"/>
</svg>
