<svg width="47" height="48" fill="none" xmlns="http://www.w3.org/2000/svg"><path d="M.952 5.125c3.717 0 4.574-1.716 5.29-3.86h3.287v30.449h-4.86V8.556H.952V5.125zm13.866 3.574c0-4.86 2.573-7.72 7.29-7.72C26.826.98 29.4 3.695 29.4 8.7v15.867c0 4.86-2.573 7.72-7.29 7.72-4.718 0-7.291-2.717-7.291-7.72V8.7zm4.86 16.153c0 2.144 1.001 3.002 2.43 3.002 1.573 0 2.43-.858 2.43-3.002V8.27c0-2.145-1-3.002-2.43-3.002-1.572 0-2.43.857-2.43 3.002v16.582zM32.115 8.699c0-4.86 2.573-7.72 7.29-7.72 4.718 0 7.291 2.716 7.291 7.72v15.867c0 4.86-2.573 7.72-7.29 7.72-4.718 0-7.29-2.717-7.29-7.72V8.7zm4.718 16.153c0 2.144 1 3.002 2.43 3.002 1.572 0 2.43-.858 2.43-3.002V8.27c0-2.145-1-3.002-2.43-3.002-1.573 0-2.43.857-2.43 3.002v16.582zM8.243 43.721l1.143-7.576h2.287v10.578h-1.572v-7.719l-1.144 7.72H7.385l-1.287-7.577v7.576h-1.43v-10.72h2.288l1.287 7.718zm5.575 3.002v-10.72h4.717v1.572h-3.002v2.716h1c1.716 0 2.574 1 2.574 2.716v1.143c0 1.716-.858 2.716-2.573 2.716h-2.716v-.143zm2.716-1.43c.571 0 .857-.285.857-1v-1.43c0-.714-.286-1-.857-1h-1.001v3.43h1zm8.148-9.148h1.43l-4.29 10.721h-1.429l4.289-10.721zm7.862 6.719v1.43c0 1.715-.858 2.715-2.573 2.715-1.715 0-2.573-1-2.573-2.716v-5.575c0-1.715.858-2.716 2.573-2.716 1.715 0 2.573 1 2.573 2.716v1h-1.572v-1.143c0-.715-.286-1-.858-1-.572 0-.858.285-.858 1v5.718c0 .715.286 1 .858 1 .572 0 .858-.285.858-1v-1.572h1.572v.143zm3.574-2.287h2.287v1.572h-2.287v3.145h2.859v1.43h-4.574V36.001h4.574v1.573h-2.859v3.002zm7.004 2.001l-.572 1v3.145h-1.572v-10.72h1.715v4.716l2.145-4.717h1.715l-2.287 4.717 2.287 6.004h-1.715l-1.716-4.145z" fill="#fff"/></svg>