<svg width="44" height="35" fill="none" xmlns="http://www.w3.org/2000/svg"><path d="M23.166 27.208H2.881c-.659 0-1.318-.527-1.318-1.317V3.893c0-.79.527-1.318 1.318-1.318H8.15m29.506 0h3.162c.79 0 1.317.527 1.317 1.318V25.89c0 .79-.527 1.317-1.317 1.317h-.922" stroke="#fff" stroke-width="2" stroke-miterlimit="10" stroke-linecap="round" stroke-linejoin="round"/><path d="M26.46 33.267h-9.221v-6.19h7.903c.79 0 1.318.526 1.318 1.316v4.874z" stroke="#fff" stroke-width="2" stroke-miterlimit="10"/><path d="M33.441 33.267H10.257m-1.844-7.245s-3.556-5.137-3.161-11.196C5.647 8.766 9.73 2.97 20.927 1.39c11.197-1.581 16.598 5.005 17.52 13.04.922 8.036-1.845 11.724-5.27 12.515-3.424.79-6.454-3.557-3.556-6.85" stroke="#fff" stroke-width="2" stroke-miterlimit="10" stroke-linecap="round"/><path d="M14.604 26.154s1.054-2.898 3.952-2.898c2.898 0 3.556 2.898 3.556 2.898m4.084-20.022c-1.054-.659-2.24-1.054-3.557-1.054-3.688 0-6.718 3.03-6.718 6.718 0 1.976.79 3.82 2.24 5.006m10.406-3.425c-.79.79-.79 2.107 0 2.898" stroke="#fff" stroke-width="2" stroke-miterlimit="10" stroke-linecap="round"/><path d="M31.643 9.122l.121.1" stroke="#fff" stroke-width="2" stroke-linecap="round" stroke-linejoin="round"/></svg>