<svg width="63" height="68" fill="none" xmlns="http://www.w3.org/2000/svg"><path d="M54.783 65.509H7.533c-3.347 0-5.906-2.54-5.906-5.862V12.75c0-3.322 2.56-5.862 5.906-5.862h47.25c3.347 0 5.907 2.54 5.907 5.862v46.897c0 3.322-2.56 5.862-5.907 5.862z" stroke="#fff" stroke-width="3" stroke-miterlimit="10"/><path d="M18.361 19.785l-6.693 6.839m0-6.839l6.693 6.839" stroke="#fff" stroke-width="3" stroke-miterlimit="10" stroke-linecap="round" stroke-linejoin="round"/><path d="M15.014 2.394v9.575m32.288-9.575v9.575" stroke="#fff" stroke-width="4" stroke-miterlimit="10" stroke-linecap="round" stroke-linejoin="round"/><path d="M34.505 19.785l-6.694 6.839m0-6.839l6.694 6.839m16.341-6.839l-6.89 6.839m-.001-6.839l6.89 6.839m-32.484 8.793l-6.693 6.839m0-6.839l6.693 6.839m16.144-6.839l-6.694 6.839m0-6.839l6.694 6.839m12.797.195c1.957 0 3.544-1.574 3.544-3.517 0-1.942-1.587-3.517-3.544-3.517s-3.544 1.575-3.544 3.517c0 1.943 1.587 3.517 3.544 3.517zm0 15.437c1.957 0 3.544-1.575 3.544-3.517 0-1.943-1.587-3.517-3.544-3.517s-3.544 1.574-3.544 3.517c0 1.942 1.587 3.517 3.544 3.517zm-16.144 0c1.957 0 3.544-1.575 3.544-3.517 0-1.943-1.587-3.517-3.544-3.517s-3.544 1.574-3.544 3.517c0 1.942 1.587 3.517 3.544 3.517zm-16.144 0c1.958 0 3.544-1.575 3.544-3.517 0-1.943-1.586-3.517-3.543-3.517-1.958 0-3.544 1.574-3.544 3.517 0 1.942 1.586 3.517 3.543 3.517z" stroke="#fff" stroke-width="3" stroke-miterlimit="10" stroke-linecap="round" stroke-linejoin="round"/></svg>