<svg width="43" height="91" fill="none" xmlns="http://www.w3.org/2000/svg"><path d="M35.423 61.96H8.275a5.793 5.793 0 01-5.817-5.818V8.31a5.793 5.793 0 015.817-5.817h27.148a5.793 5.793 0 015.818 5.817v47.832a5.793 5.793 0 01-5.818 5.818z" stroke="#fff" stroke-width="3" stroke-miterlimit="10"/><path d="M27.02 61.96H16.678v17.194H27.02V61.96zm-5.17-31.026a9.05 9.05 0 100-18.098 9.05 9.05 0 000 18.098zm0 20.168a5.56 5.56 0 100-11.12 5.56 5.56 0 000 11.12zM2.328 88.203v-3.878c0-2.844 2.327-5.171 5.171-5.171h28.7c2.844 0 5.17 2.327 5.17 5.17v3.879c0 .776-.517 1.293-1.292 1.293H3.62c-.776 0-1.293-.517-1.293-1.293z" stroke="#fff" stroke-width="3" stroke-miterlimit="10"/></svg>