<svg width="38" height="78" fill="none" xmlns="http://www.w3.org/2000/svg"><path d="M30.771 52.847H7.455a4.976 4.976 0 01-4.997-4.996V6.77a4.976 4.976 0 014.997-4.997H30.77a4.976 4.976 0 014.996 4.997v41.08a4.976 4.976 0 01-4.996 4.997z" stroke="#fff" stroke-width="3" stroke-miterlimit="10"/><path d="M23.553 52.847h-8.882v14.767h8.882V52.847zM19.113 26.2a7.772 7.772 0 100-15.544 7.772 7.772 0 000 15.545zm-.001 17.321a4.775 4.775 0 100-9.55 4.775 4.775 0 000 9.55zM2.346 75.386v-3.33a4.454 4.454 0 014.441-4.442h24.65a4.454 4.454 0 014.44 4.441v3.331c0 .666-.444 1.11-1.11 1.11H3.457c-.667 0-1.11-.444-1.11-1.11z" stroke="#fff" stroke-width="3" stroke-miterlimit="10"/></svg>