<svg width="82" height="62" fill="none" xmlns="http://www.w3.org/2000/svg"><path fill-rule="evenodd" clip-rule="evenodd" d="M19.427 61.097a2 2 0 01-1.91-1.42L.087 2.587a2.002 2.002 0 113.83-1.17l17.003 55.69h58.587a2 2 0 010 4h-59.69c-.081 0-.162-.005-.242-.014a2.007 2.007 0 01-.148.004zM69.754 48.05a.49.49 0 00.293.097c.052 0 .103-.01.15-.03a.5.5 0 00.33-.63 52.763 52.763 0 00-.13-.397l2.54-4.593a.492.492 0 00-.2-.67.5.5 0 00-.68.19L69.96 45.82a58.22 58.22 0 00-53.603-38.6l3.091-2.613a.5.5 0 10-.64-.76l-4.25 3.53a.51.51 0 00-.06.71l3.54 4.24a.49.49 0 00.38.18.482.482 0 00.37-.11.52.52 0 00.07-.71L15.96 8.213A57.22 57.22 0 0169.122 46.45l-4.265-2.363a.502.502 0 10-.48.88l5.07 2.81c.044.023.092.04.14.05a.49.49 0 00.167.223z" fill="#fff"/></svg>