<svg width="75" height="68" fill="none" xmlns="http://www.w3.org/2000/svg"><path fill-rule="evenodd" clip-rule="evenodd" d="M65.58 0H9.33A9.34 9.34 0 000 9.34v33.91a9.34 9.34 0 009.33 9.33h56.25a9.34 9.34 0 009.33-9.33V9.34A9.34 9.34 0 0065.58 0zm5.33 43.25a5.33 5.33 0 01-5.33 5.33H9.33A5.33 5.33 0 014 43.25V9.34A5.34 5.34 0 019.33 4h56.25a5.34 5.34 0 015.33 5.34v33.91zm-.1 20.07c-19.41-8.7-47.47-8.7-66.72 0a2 2 0 001.62 3.64c18.3-8.26 45-8.26 63.45 0a1.998 1.998 0 002.88-1.76 2 2 0 00-1.25-1.89l.02.01zM60.769 11.157a2 2 0 01.921 1.547 2 2 0 01-.17.956l-1.95 9.84a2 2 0 01-2 1.61c-.13.01-.26.01-.39 0a2 2 0 01-1.61-2.35L56.71 17 19.13 40.22l5.49 1.27a2.013 2.013 0 01-.45 4c-.155 0-.31-.02-.46-.06l-10-2.32a2 2 0 01-1.73-2.47l2.37-10.25a2.001 2.001 0 113.9.9l-1.3 5.61 37.34-23.05-5.39-1.07a2 2 0 01-.72-3.621 2 2 0 011.5-.299l10.26 2c.295.036.578.137.829.296z" fill="#fff"/></svg>