<svg width="49" height="78" fill="none" xmlns="http://www.w3.org/2000/svg"><path d="M28.7 40.68a17.75 17.75 0 003.55-7.4h6.48a16.77 16.77 0 01-10 7.4h-.03zm-18.37-7.4h6.49a17.63 17.63 0 003.55 7.4 16.76 16.76 0 01-10-7.4h-.04zm10-24.9a17.63 17.63 0 00-3.55 7.4h-6.45a16.72 16.72 0 0110-7.4zm18.36 7.4h-6.44a17.75 17.75 0 00-3.55-7.4 16.73 16.73 0 0110 7.4h-.01zm-5.46 8a35.998 35.998 0 00-.66-6.36h7a16.568 16.568 0 011.59 6.36h-7.93zM31 17.37c.43 2.094.668 4.223.71 6.36H17.39c.042-2.137.28-4.266.71-6.36H31zm-6.43-9.54c2.52 0 4.77 3.22 6 7.95H18.48c1.28-4.73 3.54-7.95 6.05-7.95h.04zM9.51 17.37h7a36.923 36.923 0 00-.67 6.36H7.87a16.58 16.58 0 011.6-6.36h.04zm-1.6 7.95h7.92c.039 2.139.263 4.27.67 6.37h-7a16.63 16.63 0 01-1.6-6.37h.01zm10.19 6.37a35.067 35.067 0 01-.71-6.37h14.28a35.061 35.061 0 01-.67 6.37H18.1zm6.43 9.5c-2.51 0-4.77-3.23-6.05-8h12.1c-1.28 4.72-3.53 8-6 8h-.05zm15.07-9.5h-7c.408-2.1.63-4.231.66-6.37h7.92a16.618 16.618 0 01-1.59 6.37h.01zm1.22-15.5a18.28 18.28 0 00-32.57 0v.07a18.22 18.22 0 000 16.48v.07a18.28 18.28 0 0032.57 0 .593.593 0 000-.08 18.28 18.28 0 000-16.47.249.249 0 010-.07z" fill="#fff"/><path d="M47.06 24.53a22.53 22.53 0 00-45.06 0c0 12.44 16.12 47.06 22.53 47.06 6.65 0 22.53-34.62 22.53-47.06z" stroke="#fff" stroke-width="3" stroke-miterlimit="10"/><path d="M28 69.96c9.8.19 17.27 1.24 17.27 2.5S36 75.99 24.68 75.99 4.1 73.86 4.1 72.46c0-1.24 7.23-2.27 16.79-2.49" stroke="#fff" stroke-width="3" stroke-miterlimit="10" stroke-linecap="round"/></svg>