<svg width="92" height="79" fill="none" xmlns="http://www.w3.org/2000/svg"><path fill-rule="evenodd" clip-rule="evenodd" d="M55.817 41.345a22.74 22.74 0 01-8.725 1.728l.02.08a22.79 22.79 0 01-22.74-24.58 1.79 1.79 0 113.57.28 19.22 19.22 0 0032.73 15.12 22.789 22.789 0 01-27.51-19.06 23.15 23.15 0 01.32-8.13c-.32.31-.64.65-.94 1a1.79 1.79 0 11-2.71-2.34 22.93 22.93 0 016.53-5.23 1.79 1.79 0 012.42 2.43 19.23 19.23 0 0026 26 1.79 1.79 0 012.43 2.38 22.999 22.999 0 01-4 5.38 22.74 22.74 0 01-7.395 4.942zm-15.338 10.67a5.13 5.13 0 01-3.627 8.758H8.492a8.47 8.47 0 01-1.66-16.78 9.91 9.91 0 0119.55.05 6.8 6.8 0 015.14 6.47h5.33c1.36 0 2.665.54 3.627 1.502zM4.422 49.573a4.9 4.9 0 00-.83 2.73l.02.02a4.91 4.91 0 004.9 4.88h28.38a1.55 1.55 0 100-3.1h-7.4a1.79 1.79 0 01-1.69-2.38c.12-.348.18-.713.18-1.08a3.22 3.22 0 00-3.21-3.21 1.79 1.79 0 01-1.79-1.79 6.33 6.33 0 00-12.47-1.56 8.51 8.51 0 014 2.25 1.799 1.799 0 01-1.27 3.06 1.762 1.762 0 01-1.26-.53 4.899 4.899 0 00-7.56.71zm77.116 5.593a14 14 0 00-27.736.027 9.33 9.33 0 00-7.61 9.15v.72h-2.65a6.8 6.8 0 100 13.6h36.28a11.81 11.81 0 001.716-23.497zM43.572 75.113h36.28l-.04.03a8.24 8.24 0 10-7.13-12.35 1.78 1.78 0 01-1.55.9 1.79 1.79 0 01-1.55-2.69 11.84 11.84 0 018.31-5.74 10.39 10.39 0 00-20.52 0 9.599 9.599 0 012.74 1.05 1.8 1.8 0 01.66 2.45 1.79 1.79 0 01-2.44.65 5.86 5.86 0 00-2.83-.77 5.73 5.73 0 00-5.73 5.73c0 .65.107 1.295.32 1.91a1.79 1.79 0 01-1.68 2.39h-4.84a3.22 3.22 0 100 6.44zm36.28-5.37h-7.34a1.79 1.79 0 000 3.58h7.34a1.79 1.79 0 000-3.58zm-13.756.524a1.79 1.79 0 112.531 2.531 1.79 1.79 0 01-2.531-2.531zM15.26 50.793a1.79 1.79 0 00-1.86 1.71 1.79 1.79 0 001.71 1.86h.08a1.8 1.8 0 001.79-1.66 1.79 1.79 0 00-1.72-1.91zm11.35-35.57c.185.059.377.09.57.09a1.79 1.79 0 001.7-1.22v-.07a1.79 1.79 0 00-3.38-1.17v.1a1.81 1.81 0 001.11 2.27zm28.116.235a1.79 1.79 0 11-2.531-2.531 1.79 1.79 0 012.531 2.531zm25.365 2.675a1.79 1.79 0 100-3.58 1.79 1.79 0 000 3.58zm6.855 21.385a1.79 1.79 0 11-2.531-2.53 1.79 1.79 0 012.531 2.53zM25.542 67.133a1.79 1.79 0 100 3.58 1.79 1.79 0 000-3.58zM11.849 23.628A1.792 1.792 0 019.4 21.963a1.79 1.79 0 112.448 1.665z" fill="#fff"/></svg>