<svg width="54" height="65" fill="none" xmlns="http://www.w3.org/2000/svg"><path d="M2.834 34.41a1.33 1.33 0 00-1.89-.09l-.49.44a1.34 1.34 0 00.331 2.225c.172.08.36.121.549.124.328 0 .645-.121.89-.34l.52-.47a1.33 1.33 0 00.08-1.89h.01zm.9-1c.227.155.495.238.77.24a1.332 1.332 0 001.1-.58c2.21-3.17 2.54-6.31 3-12a1.34 1.34 0 10-2.67-.21c-.42 5.4-.7 8.11-2.51 10.72a1.34 1.34 0 00.33 1.87l-.02-.04zm41.03-14.79a1.35 1.35 0 001.32 1.06h.28a1.35 1.35 0 001-1.59l-.18-.78a1.34 1.34 0 10-2.6.66c.05.23.11.45.15.68l.03-.03zm8.45 16.06c-3.93-3.27-4.79-6.45-5.34-12.81a1.341 1.341 0 10-2.67.23c.59 6.87 1.68 10.81 6.3 14.65.24.202.545.312.86.31a1.34 1.34 0 00.85-2.38z" fill="#fff"/><path d="M48.274 44.19H5.424a8.69 8.69 0 010-1.79c.13-1.2.48-1.81.68-1.92 4.49-2.6 7.06-8.82 7.85-19a12.94 12.94 0 0125.82 0 41.928 41.928 0 002.39 12h-5a1.35 1.35 0 000 2.69h6.33a13.5 13.5 0 002 2.68h-13.41a1.35 1.35 0 000 2.69h16.05c.072.292.123.59.15.89a7.475 7.475 0 010 1.79l-.01-.03zm-21.42 6.84a5.5 5.5 0 01-5.33-4.15h10.66a5.5 5.5 0 01-5.33 4.15zm0-48.33a2 2 0 110 4 2 2 0 010-4zm23.4 36.86l-.06-.1a3.42 3.42 0 00-1.24-1.31c-3.62-2.09-5.81-7.78-6.52-16.91a15.78 15.78 0 00-11.63-14 4.7 4.7 0 10-7.91 0 15.79 15.79 0 00-11.63 14c-.7 9.13-2.89 14.82-6.52 16.91-1.05.61-1.73 1.89-2 3.72-.15 1.19-.2 3.68.73 4.61.253.25.593.394.95.4h14.33a8.18 8.18 0 0016.14 0h14.32a1.35 1.35 0 00.95-.4c.94-.93.89-3.42.73-4.61a6.922 6.922 0 00-.67-2.31h.03zm-9.98 22.21h-26.85a1.34 1.34 0 000 2.68h26.85a1.34 1.34 0 000-2.68z" fill="#fff"/><path d="M27.254 38.82h-.75a1.351 1.351 0 00-1.029 2.34 1.35 1.35 0 001.029.35h.8a1.35 1.35 0 000-2.69h-.05z" fill="#fff"/></svg>