<svg width="74" height="74" fill="none" xmlns="http://www.w3.org/2000/svg"><path d="M70.9 70.9H54.39v-4.4a12.39 12.39 0 00-.75-4.24 6.48 6.48 0 012-.66l3.91 3.9a1.408 1.408 0 002 0l3.9-3.9a6.53 6.53 0 015.46 6.43v2.83l-.01.04zm-22.19 0H22.27v-2.88h9.39a1.44 1.44 0 100-2.88h-9.28a9.39 9.39 0 018-7.89l5.48 5.49a1.45 1.45 0 002 0l5.48-5.49a9.39 9.39 0 018.17 9.25v4.36l-2.8.04zM2.88 68.07a6.53 6.53 0 015.46-6.43l3.9 3.9a1.42 1.42 0 002 0l3.9-3.9a6.833 6.833 0 012 .66 12.171 12.171 0 00-.76 4.24v4.36H2.88v-2.83zM9.5 50.22A2.52 2.52 0 0112 47.7h5v1.8a1.56 1.56 0 01-1.56 1.56h-6v-.79l.06-.05zm4.69 11.34l-.93.93-.93-.93h1.86zM17 54.92a3.761 3.761 0 01-7.52 0v-1h6c.533 0 1.062-.098 1.56-.29v1.31l-.04-.02zm14.25-12.65a3.94 3.94 0 013.93-3.94h7.32v2.9a2.64 2.64 0 01-2.64 2.64h-8.59v-1.6h-.02zm8.13 14.9l-2.51 2.51-2.51-2.51h5.02zm-8.13-10.41h8.61a5.509 5.509 0 002.64-.68v2.58a5.63 5.63 0 11-11.25 0v-1.9zm25.5 3.46a2.52 2.52 0 012.51-2.52h5v1.8a1.56 1.56 0 01-1.56 1.56h-5.93v-.79l-.02-.05zm4.68 11.34l-.93.93-.92-.93h1.85zm2.83-6.64a3.76 3.76 0 11-7.51 0v-1h5.95a4.239 4.239 0 001.56-.29v1.31-.02zm1.63 3.88a6.58 6.58 0 001.25-3.88v-8.66a1.43 1.43 0 00-1.44-1.44h-6.42a5.41 5.41 0 00-5.4 5.4v4.7a6.59 6.59 0 001.26 3.88 9.194 9.194 0 00-2.82.94 12.262 12.262 0 00-9-5.4 8.47 8.47 0 002.17-5.67V36.89A1.441 1.441 0 0044 35.5h-8.8a6.83 6.83 0 00-6.82 6.82v6.39a8.52 8.52 0 002.17 5.67 12.26 12.26 0 00-9 5.4 9.103 9.103 0 00-2.82-.94 6.59 6.59 0 001.26-3.88V46.3a1.44 1.44 0 00-1.44-1.44H12a5.4 5.4 0 00-5.4 5.4v4.7a6.59 6.59 0 001.26 3.88A9.42 9.42 0 000 68.07v4.27a1.44 1.44 0 001.44 1.44h70.9a1.428 1.428 0 001.44-1.44v-4.27a9.41 9.41 0 00-7.87-9.27h-.02zm-29-29.84a14.48 14.48 0 005.89-27.71 1.44 1.44 0 10-1.17 2.63 11.6 11.6 0 11-9.49 0 1.44 1.44 0 10-1.18-2.62 14.48 14.48 0 005.95 27.68v.02z" fill="#fff"/><path d="M36.89 2.88a1.44 1.44 0 100-2.881 1.44 1.44 0 000 2.881zm0 62.26a1.44 1.44 0 00-1 2.46 1.45 1.45 0 002 0 1.44 1.44 0 00-1-2.46z" fill="#fff"/><path d="M36.97 9.07v11.22m5.61-5.61H31.36" stroke="#fff" stroke-width="2.5" stroke-miterlimit="10" stroke-linecap="round"/></svg>