<svg width="91" height="65" fill="none" xmlns="http://www.w3.org/2000/svg"><path d="M60.158 40.984h-9.74v-6.917h6.809a1.567 1.567 0 000-3.134h-6.81v-6.917h9.741a1.567 1.567 0 000-3.135H48.85c-.865 0-1.567.702-1.567 1.567v20.103c0 .866.702 1.568 1.567 1.568h11.308a1.567 1.567 0 000-3.135zm-20.96-5.84a7.44 7.44 0 004.513-6.832c0-4.098-3.334-7.43-7.431-7.43h-7.532c-.866 0-1.568.7-1.568 1.566v20.103a1.567 1.567 0 003.135 0v-6.809h5.747l2.95 7.39a1.568 1.568 0 102.912-1.162l-2.726-6.826zm-2.918-2.536h-5.965v-8.592h5.965a4.3 4.3 0 014.296 4.296 4.3 4.3 0 01-4.296 4.296zm41.784 7.015a6.749 6.749 0 01-4.085 1.361 6.817 6.817 0 01-6.809-6.809v-3.35a6.817 6.817 0 016.809-6.81c1.49 0 2.903.473 4.09 1.365a1.567 1.567 0 101.884-2.505 9.86 9.86 0 00-5.974-1.994c-5.483 0-9.944 4.46-9.944 9.944v3.35c0 5.483 4.461 9.944 9.944 9.944a9.86 9.86 0 005.968-1.99 1.567 1.567 0 00-1.883-2.506zM13.67.778H1.944C1.078.778.376 1.48.376 2.346v11.726a1.567 1.567 0 003.135 0V3.913h10.16a1.567 1.567 0 100-3.135zM89.056 49.36c-.865 0-1.567.702-1.567 1.568v10.16h-10.16a1.567 1.567 0 000 3.134h11.727c.866 0 1.568-.702 1.568-1.567V50.927c0-.866-.702-1.568-1.568-1.568zm0-48.582H77.33a1.567 1.567 0 000 3.135h10.16v10.16a1.567 1.567 0 003.135 0V2.345c0-.866-.702-1.568-1.568-1.568zM13.67 61.087H3.511v-10.16a1.567 1.567 0 00-3.135 0v11.727c0 .866.702 1.568 1.568 1.568H13.67a1.567 1.567 0 000-3.135zm0-35.18A6.6 6.6 0 007.077 32.5a6.6 6.6 0 006.593 6.593 6.6 6.6 0 006.593-6.593 6.6 6.6 0 00-6.593-6.593zm0 10.051a3.462 3.462 0 01-3.458-3.458 3.462 3.462 0 013.458-3.458 3.462 3.462 0 013.46 3.458 3.462 3.462 0 01-3.459 3.458zm23.454 25.129H20.37a1.567 1.567 0 100 3.135h16.753a1.567 1.567 0 000-3.135z" fill="#fff"/></svg>