<svg width="44" height="29" fill="none" xmlns="http://www.w3.org/2000/svg"><path fill-rule="evenodd" clip-rule="evenodd" d="M42.687 15.59a1 1 0 000-1.812L14.177.462a1 1 0 00-1.423.906v12.357H4.007a1 1 0 00-.645 1.764l9.392 7.918V28a1 1 0 001.424.906L42.687 15.59zm-27.933 7.935a1.002 1.002 0 000-.96v-6.84h16.498a1 1 0 100-2H14.754V2.938l25.147 11.746-25.147 11.745v-2.904zm-2-7.8v5.066l-6.01-5.066h6.01zM1.723 8.749a1 1 0 000 2h8.075a1 1 0 100-2H1.723zm0 11.257a1 1 0 100 2h2.284a1 1 0 100-2H1.723z" fill="#fff"/></svg>