<svg width="42" height="74" fill="none" xmlns="http://www.w3.org/2000/svg"><path d="M36.33 71.19H5.4a3 3 0 01-2.94-3v-9.32h36.8v9.32a3 3 0 01-2.95 3h.02zM5.4 2.46h30.93a3 3 0 012.95 2.94v2H2.46v-2A2.94 2.94 0 015.4 2.46zM2.46 9.81h36.8v46.66H2.46V9.81zM36.33.04H5.4A5.4 5.4 0 000 5.44v62.8a5.41 5.41 0 005.4 5.41h30.93a5.41 5.41 0 005.4-5.41V5.4a5.4 5.4 0 00-5.4-5.4v.04z" fill="#fff"/><path d="M20.87 67.51a2.46 2.46 0 11-.02-4.919 2.46 2.46 0 01.02 4.919zm0-7.36a4.91 4.91 0 104.91 4.91 4.92 4.92 0 00-4.91-4.91zM15.95 6.13h4.92a1.23 1.23 0 000-2.45h-4.92a1.23 1.23 0 000 2.45zm8.6 0h1.23a1.23 1.23 0 100-2.45h-1.23a1.23 1.23 0 100 2.45zM35.6 52.78H13.5v-4.91h22.1v4.91zm-29.46 0v-4.91h4.9v4.91h-4.9zm7.36-7.36H3.68v9.82h34.37v-9.82H13.5z" fill="#fff"/><path d="M21.06 39.01c5.981 0 10.83-4.849 10.83-10.83s-4.849-10.83-10.83-10.83-10.83 4.85-10.83 10.83 4.849 10.83 10.83 10.83z" stroke="#fff" stroke-width="2" stroke-miterlimit="10"/><path d="M18.96 33.46V22.9l7.47 5.28-7.47 5.28z" stroke="#fff" stroke-width="2" stroke-linejoin="round"/></svg>