<svg width="71" height="63" fill="none" xmlns="http://www.w3.org/2000/svg"><path d="M56.45 8.03h-2.68a1.34 1.34 0 100 2.68h2.68a1.34 1.34 0 000-2.68zm-8.05 0h-2.68a1.34 1.34 0 000 2.68h2.68a1.34 1.34 0 000-2.68zM12.19 5.35a4 4 0 100 8 4 4 0 000-8zm0 5.36a1.34 1.34 0 110-2.679 1.34 1.34 0 010 2.679zm0 10.73a4 4 0 100 7.999 4 4 0 000-8zm0 5.36a1.34 1.34 0 110-2.679 1.34 1.34 0 010 2.679zm0 10.73a4 4 0 100 8 4 4 0 000-8zm0 5.37a1.34 1.34 0 110-2.68 1.34 1.34 0 010 2.68z" fill="#fff"/><path d="M50.39 61.08c10.339 0 18.72-8.381 18.72-18.72 0-10.339-8.381-18.72-18.72-18.72-10.339 0-18.72 8.381-18.72 18.72 0 10.339 8.381 18.72 18.72 18.72z" stroke="#fff" stroke-width="3" stroke-miterlimit="10"/><path fill-rule="evenodd" clip-rule="evenodd" d="M64.5 6.71v5.34a6.71 6.71 0 01-2.85 5.37 6.67 6.67 0 012.73 5.36v4.981a20.313 20.313 0 00-2.57-2.09V22.78a4 4 0 00-4.04-4h-51a4 4 0 00-4 4v5.38c.003.235.027.47.07.7.035.184.085.364.15.54.01.058.027.115.05.17.056.148.123.292.2.43.037.083.08.163.13.24.07.123.151.24.24.35.064.091.135.178.21.26l.26.27c.102.089.21.172.32.25.082.069.17.132.26.19.139.085.282.162.43.23l.22.1c.19.08.388.14.59.18h.12c.254.048.512.072.77.07h26.15a20.125 20.125 0 00-1.341 2.74H6.79a4 4 0 00-4 4v5.35a3.89 3.89 0 00.18 1.13 4 4 0 003.84 2.89h24.231c.28.92.623 1.811 1.025 2.67H6.7A6.71 6.71 0 010 44.28v-5.42a6.67 6.67 0 012.72-5.37 5.685 5.685 0 01-.6-.5 7.2 7.2 0 01-.47-.49l-.12-.16a4.626 4.626 0 01-.32-.42l-.15-.23-.22-.38-.15-.29-.15-.35a4.002 4.002 0 01-.076-.204 3.883 3.883 0 00-.054-.146c-.04-.1-.06-.17-.1-.31-.013-.045-.03-.09-.045-.134A.797.797 0 01.2 29.61a2.51 2.51 0 010-.27c-.08-.15-.08-.31-.08-.47V22.8a6.64 6.64 0 012.72-5.36 6.67 6.67 0 01-2.72-5.37V6.71A6.7 6.7 0 016.79 0h51a6.72 6.72 0 016.71 6.71zm-3.862 8.168a4 4 0 001.172-2.828V6.71a4 4 0 00-4-4h-51a4 4 0 00-4 4v5.34a4 4 0 004 4h51a4 4 0 002.828-1.172z" fill="#fff"/><path d="M50.51 54.38s-7.15-6.54-8.5-9.09c-1-1.95-1.29-10.76-1.29-10.76s7.33 1.18 9.79 1.18c2.46 0 9.8-1.21 9.8-1.21s-.23 8.75-1.24 10.67c-1.35 2.6-8.56 9.21-8.56 9.21z" stroke="#fff" stroke-width="3" stroke-linejoin="round"/></svg>