<svg width="70" height="65" fill="none" xmlns="http://www.w3.org/2000/svg"><path d="M26.637 53.067H5.877a1.15 1.15 0 100 2.3h20.76a1.15 1.15 0 000-2.3zM3.568 41.527h9.23a1.16 1.16 0 000-2.31h-9.23a1.16 1.16 0 000 2.31zm17.3 5.77a1.152 1.152 0 00-1.17-1.16H1.268a1.16 1.16 0 100 2.31h18.43a1.15 1.15 0 001.15-1.15h.02zm46.14 13.84a1.131 1.131 0 01-1.15 1.15h-19a3.35 3.35 0 01-2.12-.81l-36.04-36.09a1.66 1.66 0 01-.09-2.23l.76-.76 37.22 37.25c.215.214.506.336.81.34h19.61v1.15zm-8.07-12.69h-6.92a1.16 1.16 0 100 2.31h6.92a7.86 7.86 0 018 6.92h-19.06l-36.91-36.91 17.41-17.41c1 3 3.16 8.94 6.67 12.46 3.94 3.94 10.78 4.74 13.51 4.91v9.28h-2.73a2.29 2.29 0 00-2-1.16 2.31 2.31 0 101.157 4.31 2.29 2.29 0 00.843-.85h2.73v6.92h-2.73a2.31 2.31 0 100 2.31h2.73v1.15c0 .306.118.6.33.82l2.31 2.3a1.152 1.152 0 101.63-1.63l-2-2v-22.56a1.15 1.15 0 00-1.13-1.16c-.09 0-8.8 0-13-4.27-4.2-4.27-6.61-13.18-6.63-13.31a1.149 1.149 0 00-1.94-.53l-19.6 19.6-1.58 1.58a4 4 0 00.09 5.48l36.09 36.1a5.55 5.55 0 003.75 1.49h19a3.42 3.42 0 003.46-3.46v-2.31a10.27 10.27 0 00-10.4-10.38z" fill="#fff"/><path d="M37.018 28.837v13.84a1.16 1.16 0 102.31 0v-13.84a1.16 1.16 0 00-2.31 0zm8.06-3.7a1.16 1.16 0 00.17-2.3 23 23 0 01-17.55-13.06 1.154 1.154 0 00-2.08 1 25.3 25.3 0 0019.3 14.35l.16.01z" fill="#fff"/></svg>