<svg width="90" height="75" fill="none" xmlns="http://www.w3.org/2000/svg"><path fill-rule="evenodd" clip-rule="evenodd" d="M87.437 18.26v-.06a61.001 61.001 0 00-86.93 0 2 2 0 002.85 2.8 57.001 57.001 0 0181.2 0 4.752 4.752 0 01-6.72 6.72 47.512 47.512 0 00-67.84 0 8.51 8.51 0 0012.07 12 30.503 30.503 0 0143.65 0 3.28 3.28 0 01.85 2.21 3.32 3.32 0 01-3.32 3.32 3.29 3.29 0 01-2.16-.81 24.291 24.291 0 00-14.48-7.14h-.59a4.14 4.14 0 00-4.13 4.14v1.79a11.53 11.53 0 00-9.48 11.23v6.51a5.092 5.092 0 005.02 5.09v6.69a2 2 0 004 0v-6.69h5v6.69a2 2 0 004 0v-6.69a5.1 5.1 0 005.04-5.09v-6.52a11.53 11.53 0 00-9.51-11.23v-1.86a.16.16 0 01.1-.15h.14a20.3 20.3 0 0112.1 6l.1.11a7.32 7.32 0 0010.34-10.34 34.51 34.51 0 00-49.37 0 4.499 4.499 0 01-7.349-1.42 4.5 4.5 0 01.95-4.91 43.511 43.511 0 0162.15 0 8.75 8.75 0 0012.37-12.36l-.05-.03zm-39.01 43.8h1.91a1.09 1.09 0 001.1-1.09v-6.49h.03a7.5 7.5 0 10-15 0v6.49a1.09 1.09 0 001.09 1.09h10.87z" fill="#fff"/></svg>