<svg width="47" height="36" fill="none" xmlns="http://www.w3.org/2000/svg"><path d="M43.855 34.549H2.948c-.767 0-1.279-.512-1.279-1.279v-6.136c0-2.173 1.662-3.835 3.835-3.835h35.794c2.173 0 3.835 1.662 3.835 3.835v6.136c0 .767-.511 1.279-1.278 1.279z" stroke="#fff" stroke-width="2" stroke-miterlimit="10"/><path d="M8.444 23.044L4.226 5.658m33.876 17.386l4.346-17.386" stroke="#fff" stroke-width="2" stroke-miterlimit="10" stroke-linecap="round"/><path d="M23.401 18.314a2.429 2.429 0 100-4.858 2.429 2.429 0 000 4.858z" stroke="#fff" stroke-width="2" stroke-miterlimit="10"/><path d="M30.048 11.794c-1.661-1.662-4.09-2.684-6.647-2.684-2.557 0-4.986 1.022-6.647 2.684M32.733 9.11c-2.43-2.43-5.753-3.835-9.332-3.835-3.707 0-7.031 1.406-9.332 3.835" stroke="#fff" stroke-width="2" stroke-miterlimit="10" stroke-linecap="round"/><path d="M35.545 6.425C32.35 3.357 28.131 1.44 23.401 1.44s-8.948 1.917-12.144 4.985M37.974 29.18h-4.602m-23.649 0H8.189m7.925 0H14.58" stroke="#fff" stroke-width="2" stroke-miterlimit="10" stroke-linecap="round"/></svg>